<svg xmlns="http://www.w3.org/2000/svg" viewBox="0 0 120 80" fill="none">
  <defs>
    <linearGradient id="goldGradient" x1="0%" y1="0%" x2="100%" y2="100%">
      <stop offset="0%" style="stop-color:#FFD700;stop-opacity:1" />
      <stop offset="50%" style="stop-color:#FFA500;stop-opacity:1" />
      <stop offset="100%" style="stop-color:#B8860B;stop-opacity:1" />
    </linearGradient>
    <linearGradient id="stoneGradient" x1="0%" y1="0%" x2="100%" y2="100%">
      <stop offset="0%" style="stop-color:#8B7355;stop-opacity:1" />
      <stop offset="50%" style="stop-color:#A0956B;stop-opacity:1" />
      <stop offset="100%" style="stop-color:#6B5B47;stop-opacity:1" />
    </linearGradient>
  </defs>
  
  <!-- Great Zimbabwe Stone Structure -->
  <g transform="translate(10, 20)">
    <!-- Main Tower/Wall -->
    <path d="M15 40 L15 10 L35 8 L35 40 Z" fill="url(#stoneGradient)" stroke="#5A4A3A" stroke-width="0.5"/>
    <!-- Secondary Wall -->
    <path d="M35 40 L35 15 L50 13 L50 40 Z" fill="url(#stoneGradient)" stroke="#5A4A3A" stroke-width="0.5"/>
    <!-- Third Wall -->
    <path d="M50 40 L50 20 L65 18 L65 40 Z" fill="url(#stoneGradient)" stroke="#5A4A3A" stroke-width="0.5"/>
    
    <!-- Stone texture lines -->
    <line x1="15" y1="25" x2="35" y2="24" stroke="#5A4A3A" stroke-width="0.3" opacity="0.7"/>
    <line x1="15" y1="32" x2="35" y2="31" stroke="#5A4A3A" stroke-width="0.3" opacity="0.7"/>
    <line x1="35" y1="28" x2="50" y2="27" stroke="#5A4A3A" stroke-width="0.3" opacity="0.7"/>
    <line x1="50" y1="32" x2="65" y2="31" stroke="#5A4A3A" stroke-width="0.3" opacity="0.7"/>
  </g>
  
  <!-- Gold Bars Stack -->
  <g transform="translate(75, 30)">
    <!-- Bottom gold bar -->
    <rect x="0" y="20" width="25" height="6" fill="url(#goldGradient)" stroke="#B8860B" stroke-width="0.3"/>
    <!-- Middle gold bar -->
    <rect x="2" y="14" width="25" height="6" fill="url(#goldGradient)" stroke="#B8860B" stroke-width="0.3"/>
    <!-- Top gold bar -->
    <rect x="4" y="8" width="25" height="6" fill="url(#goldGradient)" stroke="#B8860B" stroke-width="0.3"/>
    
    <!-- Gold bar markings -->
    <line x1="8" y1="23" x2="8" y2="20" stroke="#B8860B" stroke-width="0.5"/>
    <line x1="15" y1="23" x2="15" y2="20" stroke="#B8860B" stroke-width="0.5"/>
    <line x1="22" y1="23" x2="22" y2="20" stroke="#B8860B" stroke-width="0.5"/>
    
    <line x1="10" y1="17" x2="10" y2="14" stroke="#B8860B" stroke-width="0.5"/>
    <line x1="17" y1="17" x2="17" y2="14" stroke="#B8860B" stroke-width="0.5"/>
    <line x1="24" y1="17" x2="24" y2="14" stroke="#B8860B" stroke-width="0.5"/>
  </g>
  
  <!-- Decorative elements -->
  <circle cx="40" cy="8" r="2" fill="url(#goldGradient)" opacity="0.8"/>
  <circle cx="85" cy="8" r="1.5" fill="url(#goldGradient)" opacity="0.6"/>
  
  <!-- Text areas (to be filled by CSS) -->
  <rect x="5" y="65" width="110" height="12" fill="transparent" id="logo-text-area"/>
</svg>